<?xml version="1.0" encoding="UTF-8"?>
<!DOCTYPE svg PUBLIC "-//W3C//DTD SVG 1.1//EN" "http://www.w3.org/Graphics/SVG/1.1/DTD/svg11.dtd">
<!-- Creator: CorelDRAW X7 -->
<svg xmlns="http://www.w3.org/2000/svg" xml:space="preserve" width="93mm" height="80mm" version="1.1" style="shape-rendering:geometricPrecision; text-rendering:geometricPrecision; image-rendering:optimizeQuality; fill-rule:evenodd; clip-rule:evenodd"
viewBox="0 0 9300 8000"
 xmlns:xlink="http://www.w3.org/1999/xlink">
 <defs>
  <style type="text/css">
   <![CDATA[
    .fil1 {fill:black}
    .fil0 {fill:white}
   ]]>
  </style>
 </defs>
 <g id="Layer_x0020_1">
  <metadata id="CorelCorpID_0Corel-Layer"/>
  <g id="_1749701848768">
   <path class="fil0" d="M3931 4414c32,-15 -54,-24 91,-38 117,-11 414,30 496,84 228,150 186,401 73,573 -19,29 -30,36 -49,58 -65,75 -29,70 -90,120 -140,116 -452,42 -574,-132 -103,-148 -183,-253 -159,-422 32,-233 177,-227 212,-243zm-414 -3984l26 210c-104,1 -177,-2 -276,-37 -5,-2 -10,-4 -15,-6 -5,-2 -10,-4 -15,-5 -234,-84 -390,-94 -643,-92l273 147c25,278 -221,134 -414,134 45,69 146,76 229,115 63,29 82,24 107,66 126,217 -240,172 -354,170 -292,-4 -130,46 -225,146 -53,57 -10,12 -85,41 -86,33 -179,122 -274,132 61,392 -59,212 -550,377 -171,57 -263,131 -409,226l-455 459c-92,142 -191,278 -209,456 157,0 267,-29 282,353 7,182 -29,280 45,442l39 118c99,-7 18,-132 235,-106 82,10 49,-16 91,47l62 189c2,5 5,10 7,15l86 105c61,-37 77,-83 169,-68 68,11 129,64 163,98 91,91 177,144 288,211 0,0 15,-34 17,-38 18,-30 3,-11 25,-38 85,-105 172,-34 254,23l225 197c60,58 112,101 92,203 -29,72 11,21 -78,69l-172 124c-129,155 -25,234 -36,442 -137,56 -295,32 -453,48l-434 90c-212,68 -414,152 -593,275 -182,126 -239,206 -310,415 -62,179 -33,317 30,504l79 194c2,4 6,9 8,14l264 389c47,47 88,128 136,159 181,119 130,139 404,274 375,184 448,-59 542,-91 58,0 86,11 132,29 124,49 -90,-46 30,13l96 56c80,35 215,62 317,25 261,-93 162,-209 335,-404 179,29 335,128 497,8 55,-41 14,7 56,-49 108,-145 -95,-266 -75,-382 64,-122 197,-152 213,-320 18,-188 -92,-242 -173,-336 12,-103 120,-279 219,-323 76,-34 157,9 200,43 113,87 27,86 205,84l114 -175 176 0c76,156 157,257 317,335 107,53 129,91 216,53 283,-120 94,-78 333,-11 61,18 81,4 148,25 74,24 146,103 231,85 194,-42 156,-172 379,1 119,91 114,-39 251,-45 84,-3 117,52 175,107l163 114c258,170 69,182 147,406 7,22 9,28 16,47l148 229c101,103 57,41 178,78 252,77 215,267 511,371 67,24 36,2 101,39 23,-166 98,-177 229,-177 68,0 69,33 107,67l193 145c46,27 77,30 123,64l134 -116c157,-186 227,-32 236,-432 5,-197 91,-146 246,-118 145,27 270,38 346,-83 96,-154 99,-325 61,-483 -34,-145 -56,-271 -123,-410 -21,-44 -12,-21 -44,-60l-143 -194c-3,-3 -6,-9 -9,-13l-88 -120c-85,-87 -175,-203 -279,-271l-274 -194c-7,-4 -39,-20 -41,-20 -127,-54 -342,-113 -483,-106 -1,0 -28,6 -36,7 -193,35 -498,-38 -309,-241l96 -158c51,-97 60,-82 62,-200 3,-132 -32,-306 148,-265 61,14 -9,6 62,20 42,9 55,7 98,6 -26,-70 -63,-153 -64,-249 19,-18 11,-14 39,-32 60,-39 114,-34 167,-6 85,44 95,163 177,148 83,-47 8,0 58,-93l50 -79c48,-84 22,-83 91,-121 48,-26 26,-9 59,-23l44 -20c3,-1 10,-4 14,-7 -33,-40 -32,-194 -61,-254 -40,-82 -75,-152 -107,-212 -66,-120 -168,-213 -243,-329 -3,-5 -6,-10 -9,-14l-30 -47c95,-53 70,-70 198,-70 63,0 146,33 189,59 47,28 96,72 169,79 5,-96 3,-37 -19,-80l-52 -76c-65,-94 -273,-157 -273,-285 1,-205 372,-13 442,32 96,61 162,126 292,126 -48,-102 -116,-178 -192,-265 -3,-3 -8,-8 -11,-11l-32 -35c-75,-88 -192,-170 -295,-235 -51,-31 -109,-50 -170,-86l-269 -132c-19,-7 -79,-25 -94,-30 -278,-84 -245,-365 -510,-550l-264 -139c-50,-23 -36,-15 -92,-34 -69,-25 -111,-51 -200,-79 -124,-41 -294,-60 -399,-129l-9 -104 69 -54c55,-27 37,-18 109,-21 69,-2 147,12 206,-10 -124,-102 -605,-58 -749,-58 -136,0 -81,71 -213,14 -110,-47 -60,-51 -123,-144 36,-28 29,-23 73,-48l98 -69c-285,-3 -500,-21 -783,81 -85,30 -221,37 -251,-85 -25,-99 137,-197 186,-263 -63,-35 -105,2 -164,32 -100,52 -94,52 -160,121 -64,66 -142,152 -245,126 -40,-10 -61,-33 -91,-51 -9,-99 -16,-187 27,-279 -108,22 -157,148 -213,253 -4,8 -26,57 -26,58 -32,58 -32,63 -98,93 -57,25 -54,19 -104,-5l-288 -256z"/>
   <path class="fil1" d="M3805 686c50,24 47,30 104,5 66,-30 66,-35 98,-93 0,-1 22,-50 26,-58 56,-105 105,-231 213,-253 -43,92 -36,180 -27,279 30,18 51,41 91,51 103,26 181,-60 245,-126 66,-69 60,-69 160,-121 59,-30 101,-67 164,-32 -49,66 -211,164 -186,263 30,122 166,115 251,85 283,-102 498,-84 783,-81l-98 69c-44,25 -37,20 -73,48 63,93 13,97 123,144 132,57 77,-14 213,-14 144,0 625,-44 749,58 -59,22 -137,8 -206,10 -72,3 -54,-6 -109,21l-69 54 9 104c105,69 275,88 399,129 89,28 131,54 200,79 56,19 42,11 92,34l264 139c265,185 232,466 510,550 15,5 75,23 94,30l269 132c61,36 119,55 170,86 103,65 220,147 295,235l32 35c3,3 8,8 11,11 76,87 144,163 192,265 -130,0 -196,-65 -292,-126 -70,-45 -441,-237 -442,-32 0,128 208,191 273,285l52 76c22,43 24,-16 19,80 -73,-7 -122,-51 -169,-79 -43,-26 -126,-59 -189,-59 -128,0 -103,17 -198,70l30 47c3,4 6,9 9,14 75,116 177,209 243,329 32,60 67,130 107,212 29,60 28,214 61,254 -4,3 -11,6 -14,7l-44 20c-33,14 -11,-3 -59,23 -69,38 -43,37 -91,121l-50 79c-50,93 25,46 -58,93 -82,15 -92,-104 -177,-148 -53,-28 -107,-33 -167,6 -28,18 -20,14 -39,32 1,96 38,179 64,249 -43,1 -56,3 -98,-6 -71,-14 -1,-6 -62,-20 -180,-41 -145,133 -148,265 -2,118 -11,103 -62,200l-96 158c-189,203 116,276 309,241 8,-1 35,-7 36,-7 141,-7 356,52 483,106 2,0 34,16 41,20l274 194c104,68 194,184 279,271l88 120c3,4 6,10 9,13l143 194c32,39 23,16 44,60 67,139 89,265 123,410 38,158 35,329 -61,483 -76,121 -201,110 -346,83 -155,-28 -241,-79 -246,118 -9,400 -79,246 -236,432l-134 116c-46,-34 -77,-37 -123,-64l-193 -145c-38,-34 -39,-67 -107,-67 -131,0 -206,11 -229,177 -65,-37 -34,-15 -101,-39 -296,-104 -259,-294 -511,-371 -121,-37 -77,25 -178,-78l-148 -229c-7,-19 -9,-25 -16,-47 -78,-224 111,-236 -147,-406l-163 -114c-58,-55 -91,-110 -175,-107 -137,6 -132,136 -251,45 -223,-173 -185,-43 -379,-1 -85,18 -157,-61 -231,-85 -67,-21 -87,-7 -148,-25 -239,-67 -50,-109 -333,11 -87,38 -109,0 -216,-53 -160,-78 -241,-179 -317,-335l-176 0 -114 175c-178,2 -92,3 -205,-84 -43,-34 -124,-77 -200,-43 -99,44 -207,220 -219,323 81,94 191,148 173,336 -16,168 -149,198 -213,320 -20,116 183,237 75,382 -42,56 -1,8 -56,49 -162,120 -318,21 -497,-8 -173,195 -74,311 -335,404 -102,37 -237,10 -317,-25l-96 -56c-120,-59 94,36 -30,-13 -46,-18 -74,-29 -132,-29 -94,32 -167,275 -542,91 -274,-135 -223,-155 -404,-274 -48,-31 -89,-112 -136,-159l-264 -389c-2,-5 -6,-10 -8,-14l-79 -194c-63,-187 -92,-325 -30,-504 71,-209 128,-289 310,-415 179,-123 381,-207 593,-275l434 -90c158,-16 316,8 453,-48 11,-208 -93,-287 36,-442l172 -124c89,-48 49,3 78,-69 20,-102 -32,-145 -92,-203l-225 -197c-82,-57 -169,-128 -254,-23 -22,27 -7,8 -25,38 -2,4 -17,38 -17,38 -111,-67 -197,-120 -288,-211 -34,-34 -95,-87 -163,-98 -92,-15 -108,31 -169,68l-86 -105c-2,-5 -5,-10 -7,-15l-62 -189c-42,-63 -9,-37 -91,-47 -217,-26 -136,99 -235,106l-39 -118c-74,-162 -38,-260 -45,-442 -15,-382 -125,-353 -282,-353 18,-178 117,-314 209,-456l455 -459c146,-95 238,-169 409,-226 491,-165 611,15 550,-377 95,-10 188,-99 274,-132 75,-29 32,16 85,-41 95,-100 -67,-150 225,-146 114,2 480,47 354,-170 -25,-42 -44,-37 -107,-66 -83,-39 -184,-46 -229,-115 193,0 439,144 414,-134l-273 -147c253,-2 409,8 643,92 5,1 10,3 15,5 5,2 10,4 15,6 99,35 172,38 276,37l-26 -210 288 256zm55 -152c-102,-54 -201,-183 -330,-255 -122,-67 -250,-133 -442,-133 9,126 -18,30 64,92 50,38 46,36 89,79l155 178c-180,4 -258,-87 -431,-102 -56,-5 -104,5 -160,-6 -62,-13 -212,-42 -304,-26 -103,18 -5,22 -129,31 -56,5 -108,0 -170,6 27,158 304,195 418,258 -59,37 -293,12 -449,46 -90,20 -165,32 -248,78l34 19c104,47 226,41 327,72 1,1 61,21 77,27 18,7 89,39 90,40 72,28 118,31 128,89l-694 1c22,156 108,76 178,178l-271 142c-83,57 -212,92 -219,197 134,46 126,-59 126,82 -369,0 -752,148 -1005,399 -91,89 -188,133 -263,246l-175 226c-107,158 -184,349 -171,551 7,108 9,65 44,160 132,-2 49,-81 190,-96 22,60 6,80 16,144 16,98 24,34 35,151 34,383 -79,343 215,644 52,54 43,62 115,78 70,-62 53,-21 55,-140 102,19 83,58 163,176 51,76 227,207 326,208 13,-119 -2,-61 -24,-130 121,-9 177,106 264,162 166,105 75,121 317,111l40 -49c3,-3 7,-9 10,-12 4,-4 8,-10 11,-14 3,-4 9,-10 12,-14 3,-3 7,-10 12,-14 5,2 12,1 15,9l229 191c-19,82 -108,120 -165,167 -71,57 -113,127 -115,234 -2,79 1,165 1,245 -313,2 -415,14 -701,76 -153,34 -568,227 -690,309l-38 26c-407,264 -460,795 -249,1210l92 202c9,15 29,43 42,63 24,36 53,82 77,115 35,48 67,64 100,109 40,55 20,65 78,115 60,51 64,26 126,84l170 146c230,150 357,242 649,228 131,-6 168,-86 273,-143 43,23 65,31 114,66 62,44 222,81 309,75 140,-9 284,-85 373,-181 58,-63 95,-153 135,-238 211,21 286,125 436,27l112 -80c175,-185 130,-318 4,-508 183,-144 289,-380 134,-598 -21,-29 -11,-15 -34,-50l-55 -83c-3,-4 -7,-10 -10,-15 110,-65 43,-175 213,-73 63,38 35,48 111,66 42,10 154,5 203,5 17,-35 34,-67 67,-86 31,-18 -40,-15 48,-15 131,-1 -36,56 323,232 421,205 363,-6 558,101 184,101 69,4 209,22 46,6 173,65 234,82 189,52 136,-132 338,3 23,16 70,40 100,45 163,31 152,-31 248,-66 5,3 11,3 13,10 11,35 175,110 205,163 67,119 -43,277 205,556 81,92 116,131 235,168 6,2 62,19 63,20l247 236c123,117 500,261 664,170l25 -19c151,-120 -89,32 36,-34 97,59 193,126 305,169 148,58 298,12 399,-110l168 -194c104,-184 78,-168 72,-356 217,94 579,65 632,-201 23,-112 41,-169 40,-293 0,-101 8,-207 -16,-284 -6,-17 -30,-77 -40,-108l-505 -769c-84,-76 -177,-188 -279,-248l-97 -73c-54,-47 -24,-22 -93,-58 -170,-90 -341,-189 -543,-191 -80,-1 -141,-5 -214,-41 -5,-3 -11,-6 -16,-9 -5,-2 -13,-6 -17,-9 -4,-2 -12,-5 -17,-9 94,-199 104,-235 107,-496 97,51 251,75 382,64 -19,-58 -33,-115 -63,-170 109,17 112,73 210,123l57 29c64,28 26,25 114,18 18,-172 -47,-203 15,-363 18,-48 30,-73 60,-115 64,15 96,50 165,55 72,-157 32,-131 13,-290 -19,-167 -94,-372 -195,-515l-86 -102c-2,-4 -5,-10 -8,-14l-63 -91c233,3 453,377 628,377 21,-196 -78,-374 -174,-534 -27,-43 -85,-87 -100,-121 49,7 109,40 166,77l186 111c112,79 196,219 349,219 1,-85 -38,-169 -60,-236 -44,-138 -109,-206 -183,-318 -2,-4 -5,-9 -8,-13l-474 -479 -287 -163c-118,-46 -199,-104 -321,-141 -196,-59 -164,-113 -288,-304 -117,-179 -323,-294 -514,-378 -64,-29 -33,-19 -104,-44 -127,-44 -221,-105 -362,-105l2 -34c67,-1 300,-25 307,-115 6,-65 -38,-88 -88,-109 -58,-25 -99,-33 -155,-59l-361 -70c-124,-14 -278,7 -410,-5 9,-30 83,-52 130,-132 -109,-66 -85,-60 -247,-78 -122,-13 -136,-33 -299,-33 -321,0 -400,83 -573,106 45,-107 175,-199 266,-262 285,-197 -425,-146 -629,4 -78,57 -62,101 -172,118 13,-114 82,-284 63,-420 -121,-8 -122,10 -196,60 -151,102 -280,310 -362,465z"/>
   <path class="fil1" d="M3931 4414c-35,16 -180,10 -212,243 -24,169 56,274 159,422 122,174 434,248 574,132 61,-50 25,-45 90,-120 19,-22 30,-29 49,-58 113,-172 155,-423 -73,-573 -82,-54 -379,-95 -496,-84 -145,14 -59,23 -91,38z"/>
  </g>
 </g>
</svg>
